<svg width="274" height="274" viewBox="0 0 274 274" fill="none" xmlns="http://www.w3.org/2000/svg">
<g clip-path="url(#clip0)">
<path d="M23.9335 17.2331L23.8864 16.8018H20.013C-6.9369 16.8018 1.1311 47.525 1.1311 47.525H41.0408L47.3043 19.8018L23.9335 17.2331Z" fill="#D2D2D2"/>
<path d="M228.799 226.475C218.055 161.651 239.783 16.8018 200.454 16.8018H20.0137C70.68 16.8018 20.0137 257.197 67.985 257.197H79.4994L85.7018 254.564L83.756 254.184L228.799 226.475Z" fill="#EFEDEE"/>
<path d="M67.9854 257.198C94.9352 257.198 86.8672 226.475 86.8672 226.475H267.308C267.308 226.475 275.377 257.198 248.426 257.198H67.9854Z" fill="#D2D2D2"/>
<path d="M125.112 65.9196H67.9852C65.7012 65.9196 63.8506 64.0685 63.8506 61.785C63.8506 59.5015 65.7012 57.6504 67.9852 57.6504H125.112C127.396 57.6504 129.247 59.5015 129.247 61.785C129.247 64.0685 127.396 65.9196 125.112 65.9196Z" fill="#3A484A"/>
<path d="M202.763 205.009H172.18C169.895 205.009 168.045 203.158 168.045 200.875C168.045 198.591 169.895 196.74 172.18 196.74H202.763C205.047 196.74 206.897 198.591 206.897 200.875C206.897 203.158 205.047 205.009 202.763 205.009Z" fill="#3A484A"/>
<path d="M194.902 90.6345H67.9852C65.7012 90.6345 63.8506 88.7834 63.8506 86.4998C63.8506 84.2163 65.7012 82.3652 67.9852 82.3652H194.902C197.186 82.3652 199.036 84.2163 199.036 86.4998C199.036 88.7834 197.186 90.6345 194.902 90.6345Z" fill="#3A484A"/>
<path d="M194.902 113.118H67.9852C65.7012 113.118 63.8506 111.267 63.8506 108.983C63.8506 106.7 65.7012 104.849 67.9852 104.849H194.902C197.186 104.849 199.036 106.7 199.036 108.983C199.036 111.267 197.186 113.118 194.902 113.118Z" fill="#3A484A"/>
<path d="M167.303 135.603H67.9852C65.7012 135.603 63.8506 133.752 63.8506 131.469C63.8506 129.185 65.7012 127.334 67.9852 127.334H167.302C169.586 127.334 171.437 129.185 171.437 131.469C171.437 133.752 169.586 135.603 167.303 135.603Z" fill="#3A484A"/>
<path d="M197.184 66.5151C172.89 90.8095 158.622 119.441 156.668 143.331C180.557 141.377 209.19 127.109 233.484 102.815C257.777 78.5202 272.046 49.8884 274 25.999C250.111 27.9529 221.478 42.2206 197.184 66.5151Z" fill="#F2C42C"/>
<path d="M142.851 161.283C141.793 161.283 140.735 160.879 139.927 160.072C138.313 158.457 138.313 155.839 139.927 154.225L236.332 57.8203C237.947 56.2057 240.565 56.2057 242.179 57.8203C243.794 59.4349 243.794 62.0534 242.179 63.6674L145.775 160.071C144.968 160.879 143.909 161.283 142.851 161.283Z" fill="#E0B629"/>
</g>
<defs>
<clipPath id="clip0">
<rect width="274" height="274" fill="white"/>
</clipPath>
</defs>
</svg>
