<svg width="282" height="282" viewBox="0 0 282 282" fill="none" xmlns="http://www.w3.org/2000/svg">
<g clip-path="url(#clip0)">
<path d="M255.974 106.596H224.811C219.721 106.596 215.594 110.722 215.594 115.813V169.428C215.594 164.337 211.468 160.211 206.377 160.211H175.217C170.127 160.211 166 164.337 166 169.428V206.711C166 201.621 161.874 197.494 156.783 197.494H125.621C120.531 197.494 116.404 201.621 116.404 206.711V231.292C116.404 226.201 112.278 222.075 107.187 222.075H76.0251C70.9347 222.075 66.8102 226.201 66.8102 231.292V254.175C66.8102 249.085 62.6837 244.958 57.5933 244.958H26.4311C21.3407 244.958 17.2141 249.085 17.2141 254.175V271.671H265.188V115.813C265.19 110.722 261.064 106.596 255.974 106.596Z" fill="#FF84A7"/>
<path d="M66.8081 271.671H17.2141V254.175C17.2141 249.085 21.3407 244.958 26.4311 244.958H57.5911C62.6815 244.958 66.8081 249.085 66.8081 254.175V271.671Z" fill="#FF84A7"/>
<path d="M116.404 271.67H66.8103V231.291C66.8103 226.201 70.9347 222.074 76.0251 222.074H107.187C112.278 222.074 116.404 226.201 116.404 231.291V271.67Z" fill="#5186FF"/>
<path d="M166 271.671H116.404V206.711C116.404 201.621 120.531 197.494 125.621 197.494H156.783C161.874 197.494 166 201.621 166 206.711V271.671Z" fill="#FF84A7"/>
<path d="M215.594 271.671H166V169.428C166 164.337 170.127 160.211 175.215 160.211H206.377C211.468 160.211 215.594 164.337 215.594 169.428V271.671Z" fill="#5186FF"/>
<path d="M265.19 271.671H215.594V115.813C215.594 110.722 219.721 106.596 224.811 106.596H255.973C261.064 106.596 265.19 110.722 265.19 115.813V271.671Z" fill="#FF84A7"/>
<path d="M265.19 271.671H215.594V115.813C215.594 110.722 219.721 106.596 224.811 106.596H255.973C261.064 106.596 265.19 110.722 265.19 115.813V271.671Z" fill="#FF84A7"/>
<path d="M57.3909 244.958H26.2287C21.1383 244.958 17.0117 249.085 17.0117 254.175V260.373H43.1028C48.1933 260.373 52.3198 264.5 52.3198 269.59V271.671H66.6078V254.175C66.6078 249.085 62.4813 244.958 57.3909 244.958Z" fill="#EF6085"/>
<path d="M106.985 222.074H75.8227C70.7345 222.074 66.6079 226.201 66.6079 231.291V237.49H67.7353C86.6125 237.49 101.914 252.793 101.914 271.67H116.202V231.291C116.202 226.201 112.075 222.074 106.985 222.074Z" fill="#476EEA"/>
<path d="M156.581 197.494H125.419C120.328 197.494 116.202 201.621 116.202 206.711V212.91H117.331C136.206 212.91 151.51 228.213 151.51 247.09V271.671H165.798V206.711C165.798 201.621 161.671 197.494 156.581 197.494Z" fill="#EF6085"/>
<path d="M206.177 160.211H175.015C169.924 160.211 165.798 164.337 165.798 169.428V175.626H166.925C185.802 175.626 201.104 190.928 201.104 209.805V271.671H215.392V169.428C215.392 164.337 211.265 160.211 206.177 160.211Z" fill="#476EEA"/>
<path d="M255.771 106.596H224.609C219.519 106.596 215.392 110.722 215.392 115.813V122.011H216.522C235.397 122.011 250.7 137.315 250.7 156.19V271.671H264.988V115.813C264.988 110.722 260.862 106.596 255.771 106.596Z" fill="#EF6085"/>
<path d="M277.77 275.901H4.22983C1.89331 275.901 0 274.008 0 271.671C0 269.335 1.89331 267.441 4.22983 267.441H277.77C280.107 267.441 282 269.335 282 271.671C282 274.008 280.107 275.901 277.77 275.901Z" fill="#2F5066"/>
<path d="M165.069 53.7959L179.49 86.4448L194.548 87.4065L206.489 76.3199L191.766 39.5165C188.619 32.4274 180.273 29.2948 173.238 32.5608L110.784 61.7844C113.446 68.439 121.002 71.6705 127.652 69.0005" fill="#FFB14C"/>
<path d="M156.269 57.5958C154.421 53.409 149.593 51.4382 145.344 53.1315L115.432 65.0529C114.711 65.3412 113.98 65.5585 113.246 65.7112C116.787 69.5882 122.491 71.0727 127.652 69.0008L156.269 57.5958Z" fill="#FD9E28"/>
<path d="M191.766 39.5168C189.133 33.5851 182.857 30.4246 176.758 31.4659C177.896 32.6212 178.849 33.9982 179.546 35.5688L187.124 54.5105C191.044 64.3105 186.14 75.4187 176.256 79.1257L179.49 86.4451L206.489 76.3201L191.766 39.5168Z" fill="#FD9E28"/>
<path d="M179.49 86.4452L150.837 115.512C148.123 118.266 147.622 122.511 149.623 125.82L170.424 160.211H180.549L168.806 130.736C168.403 129.727 168.548 128.58 169.187 127.7L206.489 76.3203L179.49 86.4452Z" fill="#38627C"/>
<path d="M179.49 86.4452L206.489 76.3203L209.312 82.4499C212.713 89.836 211.356 98.543 205.865 104.541L192.702 118.926C192.003 119.692 191.839 120.807 192.291 121.74L209.142 160.211H199.017L171.917 123.363C170.544 121.68 170.081 119.432 170.677 117.343L179.49 86.4452Z" fill="#4F7693"/>
<path d="M174.946 11.8461L179.137 20.5876C181.106 24.6948 179.372 29.6217 175.265 31.5903L171.805 33.2491C167.696 35.2177 162.771 33.4836 160.8 29.3764L156.611 20.6328C154.643 16.5256 156.377 11.6008 160.484 9.63005L163.944 7.9734C168.053 6.00264 172.978 7.73674 174.946 11.8461Z" fill="#FECBAA"/>
<path d="M87.1418 116.376C94.7408 111.759 98.3553 102.663 95.9973 94.0889L41.9605 123.437C37.139 126.056 34.1377 131.103 34.1377 136.589V177.321L48.7334 177.399L60.4719 166.53L59.947 132.895" fill="#69D998"/>
<path d="M95.9995 94.0889L87.1977 98.8673C85.9047 103.702 82.8022 108.003 78.3056 110.735L64.2306 119.287C56.1044 124.225 51.2033 133.1 51.3518 142.607C51.5239 153.633 44.9231 163.64 34.7186 167.823L34.1377 168.059V177.321L60.4719 166.527L59.9491 132.897L87.1418 116.374C94.7408 111.759 98.3553 102.663 95.9995 94.0889Z" fill="#3DC5A1"/>
<path d="M60.4719 166.529L85.014 183.081C88.153 185.198 89.8354 188.896 89.3707 192.653L85.7304 222.074H76.2337L73.7509 196.781C73.6003 195.252 72.6321 193.924 71.2208 193.315L34.1377 177.321L60.4719 166.529Z" fill="#38627C"/>
<path d="M34.1377 177.321L41.5754 207.347C42.0423 209.234 41.8013 211.224 40.8977 212.946L24.0645 244.958H34.1377L59.9943 214.856C61.5692 213.023 62.3889 210.658 62.2835 208.242L60.472 166.529L34.1377 177.321Z" fill="#4F7693"/>
<path d="M47.7954 100.107L52.2146 108.736C54.2907 112.79 52.6879 117.762 48.6323 119.838L45.2179 121.587C41.1624 123.663 36.1924 122.061 34.1162 118.005L29.6971 109.378C27.6209 105.322 29.2237 100.352 33.2771 98.2758L36.6937 96.5267C40.7471 94.4505 45.7192 96.0533 47.7954 100.107Z" fill="#FECBAA"/>
</g>
<defs>
<clipPath id="clip0">
<rect width="282" height="282" fill="white"/>
</clipPath>
</defs>
</svg>
